<?xml version="1.0" encoding="UTF-8"?> <svg xmlns="http://www.w3.org/2000/svg" xmlns:xlink="http://www.w3.org/1999/xlink" width="810" zoomAndPan="magnify" viewBox="0 0 810 809.999993" height="809.999993" preserveAspectRatio="xMidYMid meet" version="1.0"><path fill="rgb(100%, 30.198669%, 42.349243%)" d="M 404.703125 774.179688 C 306.058594 774.179688 213.171875 735.785156 143.472656 665.9375 C 73.625 596.234375 35.230469 503.347656 35.230469 404.703125 C 35.230469 306.058594 73.625 213.171875 143.472656 143.472656 C 213.171875 73.625 306.058594 35.230469 404.703125 35.230469 C 503.347656 35.230469 596.234375 73.625 665.9375 143.472656 C 735.785156 213.320312 774.179688 306.058594 774.179688 404.703125 C 774.179688 503.347656 735.785156 596.234375 665.9375 665.9375 C 596.234375 735.785156 503.347656 774.179688 404.703125 774.179688 Z M 404.703125 57.378906 C 311.964844 57.378906 224.691406 93.558594 159.125 159.125 C 93.558594 224.691406 57.378906 311.964844 57.378906 404.703125 C 57.378906 497.441406 93.558594 584.71875 159.125 650.285156 C 224.691406 715.851562 311.964844 752.03125 404.703125 752.03125 C 497.441406 752.03125 584.71875 715.851562 650.285156 650.285156 C 715.851562 584.71875 752.03125 497.441406 752.03125 404.703125 C 752.03125 311.964844 715.851562 224.691406 650.285156 159.125 C 584.71875 93.558594 497.441406 57.378906 404.703125 57.378906 Z M 404.703125 57.378906 " fill-opacity="1" fill-rule="nonzero"></path><path fill="rgb(100%, 30.198669%, 42.349243%)" d="M 404.691406 790.132812 C 301.785156 790.132812 204.882812 750.078125 132.171875 677.210938 C 59.304688 604.5 19.25 507.597656 19.25 404.691406 C 19.25 301.785156 59.304688 204.882812 132.171875 132.171875 C 204.882812 59.304688 301.785156 19.25 404.691406 19.25 C 507.597656 19.25 604.5 59.304688 677.210938 132.171875 C 750.078125 205.039062 790.132812 301.785156 790.132812 404.691406 C 790.132812 507.597656 750.078125 604.5 677.210938 677.210938 C 604.5 750.078125 507.597656 790.132812 404.691406 790.132812 Z M 404.691406 42.359375 C 307.945312 42.359375 216.898438 80.101562 148.5 148.5 C 80.101562 216.898438 42.359375 307.945312 42.359375 404.691406 C 42.359375 501.4375 80.101562 592.484375 148.5 660.882812 C 216.898438 729.28125 307.945312 767.027344 404.691406 767.027344 C 501.4375 767.027344 592.484375 729.28125 660.882812 660.882812 C 729.28125 592.484375 767.027344 501.4375 767.027344 404.691406 C 767.027344 307.945312 729.28125 216.898438 660.882812 148.5 C 592.484375 80.101562 501.4375 42.359375 404.691406 42.359375 Z M 404.691406 42.359375 " fill-opacity="1" fill-rule="nonzero"></path><path stroke-linecap="round" transform="matrix(30.706083, -23.955339, 23.967388, 30.721526, 166.268345, 591.24035)" fill="none" stroke-linejoin="miter" d="M 0.500009 -0.000024076 L 15.04159 0.00000323256 " stroke="rgb(100%, 30.198669%, 42.349243%)" stroke-width="1" stroke-opacity="1" stroke-miterlimit="4"></path><path stroke-linecap="round" transform="matrix(31.019877, -23.662678, 23.632288, 30.980037, 145.198076, 465.621333)" fill="none" stroke-linejoin="miter" d="M 0.499994 -0.0000343069 L 11.651079 0.00000626029 " stroke="rgb(100%, 30.198669%, 42.349243%)" stroke-width="1" stroke-opacity="1" stroke-miterlimit="4"></path><path stroke-linecap="round" transform="matrix(31.019877, -23.662678, 23.632288, 30.980037, 282.695848, 629.2569)" fill="none" stroke-linejoin="miter" d="M 0.500022 0.000023867 L 11.651168 -0.0000152733 " stroke="rgb(100%, 30.198669%, 42.349243%)" stroke-width="1" stroke-opacity="1" stroke-miterlimit="4"></path><path stroke-linecap="round" transform="matrix(31.525849, -22.986827, 22.956411, 31.484138, 411.886471, 661.373651)" fill="none" stroke-linejoin="miter" d="M 0.5 -0.0000420865 L 7.755836 -0.0000552422 " stroke="rgb(100%, 30.198669%, 42.349243%)" stroke-width="1" stroke-opacity="1" stroke-miterlimit="4"></path><path stroke-linecap="round" transform="matrix(31.525849, -22.986827, 22.956411, 31.484138, 144.99524, 338.84599)" fill="none" stroke-linejoin="miter" d="M 0.500008 -0.00002636 L 7.755844 -0.0000395157 " stroke="rgb(100%, 30.198669%, 42.349243%)" stroke-width="1" stroke-opacity="1" stroke-miterlimit="4"></path></svg> 